<svg xmlns="http://www.w3.org/2000/svg" viewBox="0 0 48 48"><circle cx="24" cy="24" r="20" fill="#333"/><path d="M24 12c6.6 0 12 5.4 12 12 0 5.3-3.4 9.8-8.2 11.4-.6.1-.8-.3-.8-.6v-2.2c3.3.7 4-1.6 4-1.6.5-1.3 1.3-1.6 1.3-1.6 1.1-.7-.1-.7-.1-.7-1.2.1-1.9 1.2-1.9 1.2-1.1 1.9-2.9 1.3-3.6 1-.1-.8-.4-1.3-.8-1.6 2.7-.3 5.5-1.3 5.5-5.9 0-1.3-.5-2.3-1.2-3.1.1-.3.5-1.4-.1-2.9 0 0-1-.3-3.2 1.2-1-.3-2-.4-3-.4s-2 .1-3 .4c-2.2-1.5-3.2-1.2-3.2-1.2-.6 1.5-.2 2.6-.1 2.9-.8.8-1.2 1.8-1.2 3.1 0 4.6 2.8 5.6 5.5 5.9-.3.3-.6.9-.6 1.8v2.7c0 .3-.2.7-.8.6-4.8-1.6-8.2-6.1-8.2-11.4 0-6.6 5.4-12 12-12z" fill="white"/></svg>